<?xml version="1.0" encoding="utf-8"?>
<!-- Generator: Adobe Illustrator 16.0.3, SVG Export Plug-In . SVG Version: 6.00 Build 0)  -->
<!DOCTYPE svg PUBLIC "-//W3C//DTD SVG 1.1//EN" "http://www.w3.org/Graphics/SVG/1.1/DTD/svg11.dtd">
<svg version="1.1" id="Capa_1" xmlns="http://www.w3.org/2000/svg" xmlns:xlink="http://www.w3.org/1999/xlink" x="0px" y="0px"
	 width="453.434px" height="137.555px" viewBox="0 0 453.434 137.555" enable-background="new 0 0 453.434 137.555"
	 xml:space="preserve">
<g>
	<path fill-rule="evenodd" clip-rule="evenodd" fill="#FEFEFE" d="M226.688,137.519c-75.048,0-150.097-0.005-225.145,0.036
		c-1.344,0-1.536-0.375-1.535-1.6C0.042,91.153,0.044,46.352,0,1.55c-0.001-1.344,0.375-1.535,1.601-1.535
		c150.04,0.03,300.08,0.031,450.12-0.016c1.521,0,1.71,0.411,1.709,1.778c-0.039,44.745-0.04,89.49,0.004,134.234
		c0.002,1.344-0.374,1.536-1.6,1.535C376.785,137.516,301.736,137.519,226.688,137.519z"/>
	<path fill-rule="evenodd" clip-rule="evenodd" fill="#0066A0" d="M219.354,88.751c-1.324-6.832-1.324-13.664,0-20.496
		c0.541-0.416,0.315-1.017,0.374-1.55c0.011-0.421-0.015-0.854,0.391-1.137c0.475-1.631,0.912-3.274,1.432-4.892
		c1.112-3.458,2.745-6.733,4.654-9.758c4.763-7.546,10.824-13.884,18.414-18.761c4.079-2.621,8.307-4.875,12.814-6.563
		c7.995-2.994,16.29-4.481,24.845-4.374c9.772,0.122,19.13,2.112,28.02,6.238c5.049,2.344,9.724,5.23,14.01,8.811
		c4.229,3.534,7.874,7.516,11.021,12.05c3.256,4.691,5.826,9.635,7.188,15.188c0.485,0.324,0.231,1.019,0.684,1.359
		c2.239,8.98,2.342,17.963,0.037,26.949c-0.505,0.329-0.26,1.022-0.677,1.395c-1.285,5.641-3.806,10.686-7.182,15.367
		c-1.287,1.785-2.543,3.567-3.986,5.244c-4.844,5.632-10.572,10.076-17.063,13.676c-6.219,3.45-12.809,5.767-19.748,7.076
		c-11.848,2.235-23.502,1.403-34.967-2.41c-6.945-2.309-13.206-5.845-19.109-10.09c-0.413-0.297-0.769-0.674-1.148-1.018
		c-1.756-1.588-1.721-1.554-3.362,0.058c-5.598,5.498-12.313,9.12-19.729,11.473c-10.479,3.325-21.124,3.561-31.777,1.086
		c-6.334-1.471-12.169-4.102-17.03-8.657c-2.877-2.696-5.089-5.748-6.892-9.263c-2.538-4.948-3.273-10.194-3.3-15.589
		c-0.087-17.506-0.103-35.012-0.068-52.519c0.003-1.675-0.331-2.216-2.12-2.177c-5.965,0.129-11.936,0.021-17.903,0.073
		c-1.109,0.01-1.438-0.293-1.425-1.416c0.062-5.854,0.068-11.709,0.023-17.563c-0.008-1.052,0.269-1.333,1.323-1.326
		c6.138,0.04,12.277-0.042,18.415,0.025c1.391,0.015,1.686-0.434,1.677-1.734c-0.046-6.194,0.035-12.39-0.004-18.585
		c-0.007-1.152,0.243-1.542,1.476-1.534c8.753,0.055,17.506,0.048,26.259,0.005c1.094-0.005,1.433,0.262,1.424,1.397
		c-0.046,6.309,0.026,12.618-0.024,18.927c-0.009,1.206,0.339,1.519,1.523,1.515c9.719-0.034,19.438,0.029,29.157-0.027
		c1.41-0.008,1.792,0.326,1.772,1.758c-0.079,5.683-0.047,11.368,0.027,17.051c0.016,1.201-0.329,1.514-1.518,1.508
		c-9.776-0.047-19.553-0.005-29.329-0.053c-1.245-0.006-1.64,0.284-1.634,1.595c0.068,16.313,0.064,32.626,0.112,48.938
		c0.005,1.641,0.009,3.336,0.393,4.914c1.99,8.177,8.093,13.482,16.878,13.675c6.788,0.149,12.952-1.942,18.456-5.881
		c3.877-2.774,3.989-2.915,1.686-7.166c-1.749-3.227-2.648-6.694-3.721-10.13c-0.406-0.284-0.379-0.717-0.391-1.136
		C219.669,89.771,219.896,89.168,219.354,88.751z"/>
	<path fill-rule="evenodd" clip-rule="evenodd" fill="#0066A0" d="M52.28,19.626c-4.442,0-8.745-0.088-13.041,0.044
		c-1.69,0.052-2.07-0.459-2.025-2.075c0.119-4.26,0.076-8.526,0.016-12.789c-0.015-1.069,0.318-1.329,1.352-1.328
		c19.44,0.017,38.881,0.003,58.321-0.033c0.876-0.002,1.31,0.25,1.588,1.103c1.378,4.231,3.19,8.304,4.801,12.446
		c2.381,6.125,4.755,12.257,7.202,18.355c1.151,2.868,2.109,5.809,3.332,8.643c2.471,5.727,4.527,11.618,6.913,17.372
		c1.295,3.125,2.278,6.355,3.608,9.451c2.486,5.783,4.585,11.718,6.98,17.53c1.267,3.073,2.238,6.248,3.543,9.292
		c2.504,5.837,4.822,11.744,6.962,17.721c0.38,1.061,1.053,1.431,2.155,1.413c2.898-0.046,5.798,0.026,8.696-0.02
		c1.035-0.017,1.374,0.331,1.359,1.374c-0.064,4.547-0.073,9.094-0.058,13.642c0.003,0.924-0.243,1.279-1.248,1.277
		c-17.451-0.029-34.902-0.029-52.353-0.002c-1.008,0.001-1.235-0.37-1.234-1.293c0.004-4.547-0.02-9.094-0.101-13.64
		c-0.019-1.071,0.358-1.352,1.378-1.336c2.898,0.044,5.798-0.031,8.696-0.01c0.846,0.006,1.097-0.179,0.768-1.044
		c-1.947-5.114-3.854-10.243-5.783-15.363c-0.328-0.869-0.93-1.265-1.917-1.262c-17.564,0.053-35.128,0.102-52.692,0.08
		c-1.917-0.002-1.491,1.798-2.381,2.563c-0.336,0.289-0.396,0.923-0.538,1.412c-1.199,4.125-3.221,7.933-4.619,11.985
		c-0.512,1.484-0.121,1.681,1.241,1.645c2.896-0.076,5.797,0.017,8.696-0.025c0.994-0.014,1.386,0.235,1.371,1.332
		c-0.063,4.547-0.088,9.096,0.01,13.642c0.031,1.433-0.688,1.343-1.661,1.341c-12.619-0.017-25.239-0.011-37.858-0.011
		c-3.297,0-6.595-0.046-9.89,0.025c-1.137,0.024-1.586-0.204-1.563-1.466c0.078-4.432,0.066-8.868,0.006-13.3
		c-0.016-1.157,0.268-1.584,1.499-1.55c3.067,0.085,6.139-0.008,9.208,0.05c0.938,0.018,1.341-0.283,1.729-1.163
		c1.59-3.613,2.757-7.385,4.246-11.027c2.36-5.775,4.518-11.628,6.877-17.397c1.323-3.235,2.366-6.565,3.731-9.773
		c2.42-5.686,4.526-11.492,6.796-17.234c2.417-6.114,4.772-12.251,7.173-18.371c2.278-5.806,4.644-11.577,6.837-17.419
		C50.968,22.939,51.849,21.562,52.28,19.626z"/>
	<path fill-rule="evenodd" clip-rule="evenodd" fill="#0066A0" d="M451.401,99.003c-0.259,3.653-0.914,7.266-2.519,10.541
		c-2.701,5.515-6.511,10.125-11.556,13.798c-10.512,7.653-22.542,10.653-35.167,11.652c-15.544,1.23-30.843-0.477-45.814-4.875
		c-5.164-1.517-10.152-3.519-15.055-5.744c-1.149-0.521-1.4-0.958-0.614-2.101c3.178-4.618,6.275-9.292,9.358-13.974
		c0.683-1.038,1.243-2.169,1.757-3.304c0.449-0.993,0.958-1.332,2.075-0.89c4.91,1.943,9.986,3.381,15.111,4.618
		c10.194,2.46,20.493,4.06,31.031,3.25c6.015-0.462,11.686-2.026,16.834-5.299c3.928-2.497,5.755-8.465,3.569-12.57
		c-1.579-2.966-4.196-4.954-7.136-6.487c-7.998-4.172-16.76-6.153-25.292-8.798c-8.602-2.666-17.129-5.574-24.841-10.341
		c-3.551-2.195-6.767-4.827-9.37-8.219c-7.251-9.445-7.864-19.965-4.426-30.717c2.414-7.552,7.917-13.043,14.722-17.186
		c12.628-7.686,26.556-9.747,40.995-9.653c12.555,0.083,24.872,2.142,37.153,4.51c1.38,0.266,1.867,0.771,1.793,2.337
		c-0.497,10.617-0.876,21.239-1.212,31.863c-0.046,1.45-0.379,1.933-1.921,1.885c-6.249-0.195-12.503-0.303-18.755-0.299
		c-1.577,0.001-1.855-0.515-1.823-1.945c0.108-4.773,0.034-9.551,0.131-14.325c0.023-1.144-0.298-1.61-1.423-1.755
		c-10.332-1.327-20.619-1.674-30.72,1.498c-4.417,1.387-8.196,3.705-10.589,7.877c-1.149,2.003-0.728,5.95,0.452,7.919
		c3.168,5.292,8.516,7.473,13.72,9.732c9.208,3.996,19.065,6.125,28.491,9.505c5.799,2.08,11.481,4.427,16.771,7.714
		c4.794,2.98,8.762,6.684,11.506,11.571c1.827,3.254,2.477,6.925,2.773,10.634C451.858,93.954,451.881,96.479,451.401,99.003z"/>
	<path fill-rule="evenodd" clip-rule="evenodd" fill="#91BDD6" d="M451.401,99.003c0.005-2.525,0.009-5.05,0.013-7.576
		c0.174,0.122,0.484,0.227,0.501,0.366c0.259,2.278,0.257,4.562-0.006,6.84C451.893,98.774,451.578,98.881,451.401,99.003z"/>
	<path fill-rule="evenodd" clip-rule="evenodd" fill="#72AACB" d="M343.198,64.87c-0.835-0.148-0.697-0.785-0.684-1.359
		C343.425,63.621,343.219,64.292,343.198,64.87z"/>
	<path fill-rule="evenodd" clip-rule="evenodd" fill="#CCE0EB" d="M220.119,65.569c-0.034,0.427-0.067,0.855-0.1,1.283
		c-0.185,0.256-0.397,0.251-0.628,0.066C219.419,66.353,219.154,65.629,220.119,65.569z"/>
	<path fill-rule="evenodd" clip-rule="evenodd" fill="#4A92BC" d="M219.391,66.918c0.209-0.022,0.418-0.044,0.628-0.066
		c0.043,0.593,0.261,1.269-0.665,1.404C219.367,67.81,219.379,67.364,219.391,66.918z"/>
	<path fill-rule="evenodd" clip-rule="evenodd" fill="#4A92BC" d="M219.354,88.751c0.924,0.135,0.708,0.809,0.664,1.402
		c-0.228,0.156-0.438,0.146-0.627-0.065C219.379,89.643,219.367,89.197,219.354,88.751z"/>
	<path fill-rule="evenodd" clip-rule="evenodd" fill="#CCE0EB" d="M219.391,90.088c0.209,0.022,0.418,0.044,0.627,0.065
		c0.033,0.429,0.067,0.856,0.101,1.285C219.154,91.378,219.419,90.654,219.391,90.088z"/>
	<path fill-rule="evenodd" clip-rule="evenodd" fill="#4891BB" d="M342.559,93.213c-0.019-0.583-0.272-1.281,0.677-1.395
		C343.189,92.371,343.467,93.08,342.559,93.213z"/>
	<path fill-rule="evenodd" clip-rule="evenodd" fill="#FEFEFE" d="M244.342,64.176c1.383-3.603,3.428-6.569,5.752-9.31
		c5.012-5.909,11.264-10.074,18.632-12.45c8.279-2.67,16.656-2.712,24.999-0.301c4.151,1.199,8.057,3.046,11.588,5.555
		c5.026,3.569,9.322,7.834,12.168,13.405c0.379,0.741,1.044,1.301,1.354,2.114c0.298,0.779,0.093,1.052-0.701,0.989
		c-0.17-0.014-0.341-0.001-0.512-0.001c-24.04,0-48.08,0-72.121,0C245.161,64.176,244.822,64.176,244.342,64.176z"/>
	<path fill-rule="evenodd" clip-rule="evenodd" fill="#FEFEFE" d="M321.415,88.091c-0.868,5.262-3.17,9.959-6.368,14.087
		c-5.796,7.481-13.31,12.584-22.568,14.944c-0.159,0.041-0.301,0.154-0.45,0.234c-0.222,0.229-0.517,0.163-0.789,0.208
		c-1.121,0.182-1.758,0.282-1.377-1.389c0.316-1.382,0.651-2.808,0.814-4.242c0.329-1.321,0.645-2.646,0.99-3.962
		c1.028-3.913,2.825-7.54,4.939-10.903c3.482-5.54,8.114-10.103,13.792-13.429c3.264-1.913,6.741-3.443,10.552-4.023
		c1.205-0.183,1.982-0.083,1.734,1.489c-0.292,1.846-0.429,3.717-0.633,5.577C321.603,87.045,321.817,87.708,321.415,88.091z"/>
	<path fill-rule="evenodd" clip-rule="evenodd" fill="#FEFEFE" d="M241.247,79.582c2.897,0.049,5.569,1.017,8.124,2.225
		c6.271,2.967,11.485,7.193,15.609,12.865c3.236,4.45,5.635,9.204,6.942,14.529c0.447,0.359,0.225,1.027,0.645,1.399
		c0.314,1.959,0.617,3.92,0.947,5.877c0.153,0.915-0.092,1.202-1.078,1.015c-2.914-0.552-5.701-1.504-8.355-2.767
		c-6.364-3.026-11.764-7.203-15.955-13.001c-3.942-5.456-6.388-11.369-6.945-18.067C240.743,82.291,240.643,80.93,241.247,79.582z"
		/>
	<path fill-rule="evenodd" clip-rule="evenodd" fill="#FEFEFE" d="M281.748,85.65c-3.969,0.023-6.866-2.583-6.966-6.103
		c-0.095-3.341,3.341-6.548,6.872-6.547c3.293,0.001,6.914,2.708,6.835,6.543C288.416,83.084,285.666,85.626,281.748,85.65z"/>
	<path fill-rule="evenodd" clip-rule="evenodd" fill="#3B89B6" d="M290.677,111.934c-0.185,1.781-0.369,3.562-0.559,5.395
		c0.564,0.375,1.251-0.112,1.91,0.028c-0.355,0.57-1.009,0.418-1.517,0.576c-0.915,0.285-1.277-0.291-1.142-1.102
		C289.649,115.161,289.772,113.44,290.677,111.934z"/>
	<path fill-rule="evenodd" clip-rule="evenodd" fill="#99C1D9" d="M241.247,79.582c-0.021,1.358-0.044,2.717-0.066,4.076
		C240.17,82.574,240.209,80.137,241.247,79.582z"/>
	<path fill-rule="evenodd" clip-rule="evenodd" fill="#92BDD6" d="M321.415,88.091c-0.021-0.575-0.273-1.254,0.637-1.409
		C322.05,87.247,322.314,87.932,321.415,88.091z"/>
	<path fill-rule="evenodd" clip-rule="evenodd" fill="#70A9C9" d="M272.567,110.6c-0.851-0.174-0.653-0.83-0.645-1.399
		C272.882,109.324,272.583,110.028,272.567,110.6z"/>
	<path fill-rule="evenodd" clip-rule="evenodd" fill="#FEFEFE" d="M75.736,28.672c0.341,0.547,0.549,0.763,0.625,1.017
		c1.354,4.607,3.457,8.929,5.143,13.411c2.551,6.782,5.282,13.496,7.891,20.257c1.069,2.771,1.971,5.622,3.222,8.31
		c0.949,2.041,1.711,4.136,2.523,6.221c0.345,0.885,0.145,1.179-0.85,1.176c-12.154-0.033-24.309-0.039-36.464-0.023
		c-1.253,0.001-1.792-0.234-1.164-1.605c1.689-3.686,2.864-7.583,4.459-11.295c0.955-2.221,1.725-4.498,2.629-6.729
		c1.543-3.805,2.926-7.678,4.493-11.465c1.141-2.756,1.917-5.662,3.229-8.317C73.169,36.195,74.094,32.479,75.736,28.672z"/>
</g>
</svg>
